<svg width="32" height="32" viewBox="0 0 32 32" fill="none" xmlns="http://www.w3.org/2000/svg">
  <path fill-rule="evenodd" clip-rule="evenodd" d="M16 12C16.5523 12 17 12.4477 17 13V18C17 18.5523 16.5523 19 16 19C15.4477 19 15 18.5523 15 18V13C15 12.4477 15.4477 12 16 12Z" fill="#FF5500"/>
  <path fill-rule="evenodd" clip-rule="evenodd" d="M14.5014 3.4011C14.9571 3.13832 15.4739 3 16 3C16.526 3 17.0428 3.13832 17.4985 3.4011C17.9542 3.66387 18.3329 4.04185 18.5964 4.49713L17.7384 4.99377L18.5964 4.49714L29.5934 23.4962C29.8574 23.9522 29.9966 24.4697 29.997 24.9966C29.9974 25.5234 29.8591 26.0412 29.5959 26.4976C29.3327 26.9541 28.9539 27.3331 28.4977 27.5967C28.0415 27.8603 27.5239 27.999 26.997 27.999H5.00294C4.47604 27.999 3.95844 27.8603 3.50222 27.5967C3.04599 27.3331 2.66722 26.9541 2.40403 26.4976C2.14083 26.0412 2.00249 25.5234 2.00293 24.9966C2.00337 24.4697 2.14256 23.9522 2.40651 23.4962L13.4035 4.49714L14.2836 5.00651L13.4035 4.49713C13.6671 4.04185 14.0457 3.66387 14.5014 3.4011ZM16 5C15.8246 5 15.6523 5.04611 15.5004 5.1337C15.3485 5.22129 15.2223 5.34728 15.1345 5.49904L4.13746 24.4981L3.27198 23.9971L4.13746 24.4981C4.04947 24.6501 4.00308 24.8226 4.00293 24.9982C4.00278 25.1738 4.0489 25.3464 4.13663 25.4986C4.22436 25.6507 4.35062 25.7771 4.50269 25.8649C4.65477 25.9528 4.82731 25.999 5.00294 25.999H26.997C27.1726 25.999 27.3452 25.9528 27.4972 25.8649C27.6493 25.7771 27.7756 25.6507 27.8633 25.4986C27.951 25.3464 27.9972 25.1738 27.997 24.9982C27.9969 24.8226 27.9505 24.6501 27.8625 24.4981L28.7279 23.9971L27.8625 24.4981L16.8654 5.49904C16.7776 5.34728 16.6514 5.22129 16.4995 5.1337C16.3476 5.04611 16.1753 5 16 5Z" fill="#FF5500"/>
  <path d="M16 24C16.8284 24 17.5 23.3284 17.5 22.5C17.5 21.6716 16.8284 21 16 21C15.1716 21 14.5 21.6716 14.5 22.5C14.5 23.3284 15.1716 24 16 24Z" fill="#FF5500"/>
</svg>
