<svg width="16" height="16" viewBox="0 0 16 16" fill="none" xmlns="http://www.w3.org/2000/svg">
  <path fill-rule="evenodd" clip-rule="evenodd" d="M15.2803 0.71967C15.5732 1.01256 15.5732 1.48744 15.2803 1.78033L1.78033 15.2803C1.48744 15.5732 1.01256 15.5732 0.71967 15.2803C0.426777 14.9874 0.426777 14.5126 0.71967 14.2197L14.2197 0.71967C14.5126 0.426777 14.9874 0.426777 15.2803 0.71967Z" fill="#040B1D"/>
  <path fill-rule="evenodd" clip-rule="evenodd" d="M0.71967 0.71967C1.01256 0.426777 1.48744 0.426777 1.78033 0.71967L15.2803 14.2197C15.5732 14.5126 15.5732 14.9874 15.2803 15.2803C14.9874 15.5732 14.5126 15.5732 14.2197 15.2803L0.71967 1.78033C0.426777 1.48744 0.426777 1.01256 0.71967 0.71967Z" fill="#040B1D"/>
</svg>
