<svg width="24" height="24" viewBox="0 0 24 24" fill="none" xmlns="http://www.w3.org/2000/svg">
  <path d="M18.4807 6.24399C17.255 4.29199 15.6767 2.61813 14.2945 1.23834C14.2096 1.15354 14.1056 1.09035 13.9912 1.05409C13.8768 1.01783 13.7553 1.00956 13.6371 1.02996C13.5188 1.05037 13.4072 1.09886 13.3115 1.17137C13.2159 1.24387 13.1391 1.33827 13.0875 1.44662L10.1953 7.52032L7.1694 5.50305C7.08733 5.44833 6.99528 5.41034 6.8985 5.39125C6.80173 5.37217 6.70214 5.37236 6.60544 5.39181C6.50874 5.41127 6.41683 5.44962 6.33498 5.50465C6.25312 5.55968 6.18292 5.63032 6.1284 5.71252C4.30138 8.46671 3.375 10.9606 3.375 13.1248C3.375 15.4123 4.2837 17.6061 5.9012 19.2236C7.51871 20.8411 9.71251 21.7498 12 21.7498C14.2875 21.7498 16.4813 20.8411 18.0988 19.2236C19.7163 17.6061 20.625 15.4123 20.625 13.1248C20.625 10.7925 19.9236 8.54178 18.4807 6.24399ZM17.5589 13.9893C17.3798 15.1703 16.8276 16.263 15.9829 17.1077C15.1383 17.9524 14.0456 18.5046 12.8645 18.6837C12.8263 18.6896 12.7878 18.6926 12.7491 18.6926C12.5602 18.6923 12.3784 18.6208 12.2399 18.4923C12.1015 18.3639 12.0166 18.1879 12.0022 17.9995C11.9879 17.8111 12.0451 17.6243 12.1625 17.4763C12.28 17.3284 12.4489 17.2301 12.6356 17.2013C13.498 17.0623 14.2947 16.655 14.9125 16.0373C15.5302 15.4196 15.9375 14.6228 16.0764 13.7604C16.0915 13.663 16.1255 13.5696 16.1766 13.4854C16.2278 13.4013 16.295 13.328 16.3744 13.2698C16.4539 13.2116 16.544 13.1696 16.6397 13.1462C16.7354 13.1229 16.8347 13.1186 16.9321 13.1336C17.0294 13.1486 17.1228 13.1827 17.207 13.2338C17.2912 13.285 17.3645 13.3522 17.4227 13.4316C17.4809 13.5111 17.5229 13.6012 17.5462 13.6969C17.5696 13.7926 17.5739 13.8919 17.5588 13.9893H17.5589Z" fill="#FF6335"/>
</svg>
