<svg width="24" height="24" viewBox="0 0 24 24" fill="none" xmlns="http://www.w3.org/2000/svg">
  <path fill-rule="evenodd" clip-rule="evenodd" d="M6 9.75C4.75736 9.75 3.75 10.7574 3.75 12C3.75 13.2426 4.75736 14.25 6 14.25C7.24264 14.25 8.25 13.2426 8.25 12C8.25 10.7574 7.24264 9.75 6 9.75ZM2.25 12C2.25 9.92893 3.92893 8.25 6 8.25C8.07107 8.25 9.75 9.92893 9.75 12C9.75 14.0711 8.07107 15.75 6 15.75C3.92893 15.75 2.25 14.0711 2.25 12Z" fill="#A9AFBD"/>
  <path fill-rule="evenodd" clip-rule="evenodd" d="M16.5 16.5C15.2574 16.5 14.25 17.5074 14.25 18.75C14.25 19.9926 15.2574 21 16.5 21C17.7426 21 18.75 19.9926 18.75 18.75C18.75 17.5074 17.7426 16.5 16.5 16.5ZM12.75 18.75C12.75 16.6789 14.4289 15 16.5 15C18.5711 15 20.25 16.6789 20.25 18.75C20.25 20.8211 18.5711 22.5 16.5 22.5C14.4289 22.5 12.75 20.8211 12.75 18.75Z" fill="#A9AFBD"/>
  <path fill-rule="evenodd" clip-rule="evenodd" d="M16.5 3C15.2574 3 14.25 4.00736 14.25 5.25C14.25 6.49264 15.2574 7.5 16.5 7.5C17.7426 7.5 18.75 6.49264 18.75 5.25C18.75 4.00736 17.7426 3 16.5 3ZM12.75 5.25C12.75 3.17893 14.4289 1.5 16.5 1.5C18.5711 1.5 20.25 3.17893 20.25 5.25C20.25 7.32107 18.5711 9 16.5 9C14.4289 9 12.75 7.32107 12.75 5.25Z" fill="#A9AFBD"/>
  <path fill-rule="evenodd" clip-rule="evenodd" d="M14.608 6.46647C14.8319 6.8149 14.7311 7.27893 14.3826 7.50292L8.9291 11.0088C8.58067 11.2328 8.11663 11.1319 7.89264 10.7835C7.66866 10.435 7.76953 9.97099 8.11796 9.747L13.5715 6.24116C13.9199 6.01717 14.384 6.11804 14.608 6.46647Z" fill="#A9AFBD"/>
  <path fill-rule="evenodd" clip-rule="evenodd" d="M7.89264 13.2165C8.11663 12.8681 8.58067 12.7672 8.9291 12.9912L14.3826 16.4971C14.7311 16.7211 14.8319 17.1851 14.608 17.5335C14.384 17.8819 13.9199 17.9828 13.5715 17.7588L8.11796 14.253C7.76953 14.029 7.66866 13.565 7.89264 13.2165Z" fill="#A9AFBD"/>
</svg>
