<svg width="127" height="36" viewBox="0 0 127 36" fill="none" xmlns="http://www.w3.org/2000/svg">
  <path fill-rule="evenodd" clip-rule="evenodd" d="M71.8036 34.9494C71.8036 35.4403 72.2493 35.8079 72.7174 35.6825C80.335 33.6411 85.9544 26.5597 85.9544 18.1374C85.9544 8.1204 78.0054 0 68.1999 0C58.3943 0 50.4453 8.1204 50.4453 18.1374C50.4453 26.7533 56.3261 33.966 64.2108 35.8153C64.6736 35.9238 65.1035 35.5582 65.1035 35.0765V30.7796C65.1035 30.4325 64.8748 30.1299 64.5492 30.0228C62.0521 29.2008 60.0324 27.7454 58.4902 25.6566C56.847 23.4152 56.0254 20.8181 56.0254 17.8652C56.0254 13.9637 57.4603 10.7677 60.3301 8.2773C62.7139 6.21385 65.4275 5.18212 68.4709 5.18212C72.3938 5.18212 75.5587 6.63484 77.9656 9.54028C79.9097 11.8883 80.8817 14.5981 80.8817 17.6696C80.8817 20.6817 80.0196 23.3796 78.2954 25.7633C76.8493 27.7761 74.8698 29.1959 72.3569 30.0226C72.0317 30.1296 71.8036 30.432 71.8036 30.7786V34.9494ZM71.578 20.5962C71.578 20.1686 71.2361 19.822 70.8143 19.822H66.1102C65.6884 19.822 65.3465 20.1686 65.3465 20.5962V20.8899C65.3465 21.5464 64.6124 21.8714 64.2458 21.3301C63.591 20.3632 63.2636 19.2201 63.2636 17.9008C63.2636 16.3947 63.7785 15.0903 64.8084 13.9874C65.8383 12.8845 67.0592 12.3331 68.4709 12.3331C69.8711 12.3331 71.0862 12.8845 72.1161 13.9874C73.146 15.0903 73.6609 16.3947 73.6609 17.9008C73.6609 19.18 73.3373 20.3071 72.6902 21.2823C72.3248 21.8329 71.578 21.5105 71.578 20.8469V20.5962Z" fill="#00BFFF"/>
  <path d="M0.904297 11.2879C0.904297 10.8603 1.24619 10.5137 1.66793 10.5137H7.86587C8.28762 10.5137 8.62951 10.8603 8.62951 11.2879V21.7111C8.62951 22.1989 8.73552 22.5841 8.94755 22.8669C9.15957 23.1426 9.41947 23.2804 9.72725 23.2804C10.0419 23.2804 10.3565 23.132 10.6711 22.8351C10.9926 22.5311 11.1533 22.1565 11.1533 21.7111V11.2879C11.1533 10.8603 11.4952 10.5137 11.9169 10.5137H18.2072C18.6289 10.5137 18.9708 10.8603 18.9708 11.2879V22.0186C18.9708 23.7929 18.5297 25.3305 17.6474 26.6312C16.7719 27.9319 15.6229 28.9145 14.2003 29.579C12.7845 30.2435 11.2935 30.5757 9.72725 30.5757C8.61241 30.5757 7.52493 30.3954 6.46481 30.0349C5.40469 29.6673 4.454 29.123 3.61274 28.402C2.77832 27.6739 2.11831 26.7725 1.6327 25.6981C1.1471 24.6236 0.904297 23.3971 0.904297 22.0186V11.2879Z" fill="#040B1D"/>
  <path d="M21.5545 29.4529C21.1327 29.4529 20.7908 29.1063 20.7908 28.6787V17.0679C20.7908 15.5057 21.2115 14.1696 22.0527 13.0598C22.9008 11.9428 24.0191 11.1016 25.4075 10.5361C26.7959 9.97058 28.2664 9.68782 29.819 9.68782C31.4057 9.68782 32.9138 9.98472 34.3433 10.5785C35.7796 11.1653 36.9389 12.0454 37.8212 13.2188C38.7103 14.3923 39.1549 15.7778 39.1549 17.3754V28.6787C39.1549 29.1063 38.813 29.4529 38.3912 29.4529H31.8034C31.3817 29.4529 31.0398 29.1063 31.0398 28.6787V17.895C31.0398 17.4709 30.9235 17.1563 30.691 16.9513C30.4653 16.7392 30.2054 16.6332 29.9113 16.6332C29.583 16.6332 29.2684 16.7604 28.9674 17.0149C28.6665 17.2623 28.516 17.5557 28.516 17.895V28.6787C28.516 29.1063 28.1741 29.4529 27.7524 29.4529H21.5545Z" fill="#040B1D"/>
  <path d="M41.7282 29.4529C41.3065 29.4529 40.9646 29.1063 40.9646 28.6787V10.6847C40.9646 10.2571 41.3065 9.9105 41.7282 9.9105H48.234C48.6557 9.9105 48.9976 10.2571 48.9976 10.6847V28.6787C48.9976 29.1063 48.6557 29.4529 48.234 29.4529H41.7282Z" fill="#040B1D"/>
  <path d="M87.3583 11.2879C87.3583 10.8603 87.7002 10.5137 88.1219 10.5137H94.3199C94.7416 10.5137 95.0835 10.8603 95.0835 11.2879V21.7111C95.0835 22.1989 95.1895 22.5841 95.4015 22.8669C95.6136 23.1426 95.8735 23.2804 96.1812 23.2804C96.4959 23.2804 96.8105 23.132 97.1251 22.8351C97.4465 22.5311 97.6073 22.1565 97.6073 21.7111V11.2879C97.6073 10.8603 97.9492 10.5137 98.3709 10.5137H104.661C105.083 10.5137 105.425 10.8603 105.425 11.2879V22.0186C105.425 23.7929 104.984 25.3305 104.101 26.6312C103.226 27.9319 102.077 28.9145 100.654 29.579C99.2385 30.2435 97.7475 30.5757 96.1812 30.5757C95.0664 30.5757 93.9789 30.3954 92.9188 30.0349C91.8587 29.6673 90.908 29.123 90.0667 28.402C89.2323 27.6739 88.5723 26.7725 88.0867 25.6981C87.6011 24.6236 87.3583 23.3971 87.3583 22.0186V11.2879Z" fill="#040B1D"/>
  <path d="M126.57 16.439C126.722 16.7941 126.575 17.2051 126.242 17.3933L117.913 22.0912C117.547 22.2976 117.085 22.1668 116.878 21.7981L115.653 19.619C115.441 19.243 115.575 18.7644 115.949 18.5565L118.294 17.2544C118.738 17.0079 118.808 16.3911 118.324 16.2393C118.092 16.1663 117.84 16.1299 117.573 16.1299C116.727 16.1299 115.881 16.5219 115.035 17.276C114.859 17.4268 114.072 18.03 113.838 18.6634C113.692 19.0253 113.721 19.3571 113.751 19.5682C113.78 19.8397 114.568 22.0415 115.239 22.8257C115.939 23.64 116.727 24.0321 117.661 24.0321C119.017 24.0321 120.489 23.2614 122.016 21.7201C122.323 21.41 122.821 21.3921 123.131 21.6993L126.372 24.9114C126.634 25.1712 126.68 25.5855 126.456 25.8796C125.835 26.6936 125.062 27.4249 124.168 28.0737C123.06 28.8579 121.892 29.431 120.637 29.8532C119.383 30.2453 118.128 30.4565 116.873 30.4565C115.618 30.4565 114.451 30.2453 113.313 29.8532C112.175 29.4611 111.153 28.8579 110.22 28.0134C109.286 27.1991 108.556 26.1434 107.973 24.8766C107.418 23.6099 107.01 22.1621 106.922 20.5032C106.922 20.4128 106.922 20.3826 106.922 20.2318C106.922 20.081 106.922 19.9905 106.922 19.9905C106.922 17.7887 107.418 15.8886 108.381 14.3202C109.344 12.7518 110.599 11.5453 112.087 10.7611C113.605 9.97695 115.122 9.55469 116.669 9.55469C121.307 9.55469 124.607 11.8495 126.57 16.439Z" fill="#040B1D"/>
</svg>
