<svg width="140" height="64" viewBox="0 0 140 64" fill="none" xmlns="http://www.w3.org/2000/svg">
  <path d="M9.83008 52.3105L9.99414 53.4355L10.2344 52.4219L11.9219 46.4688H12.8711L14.5176 52.4219L14.752 53.4531L14.9336 52.3047L16.2578 46.4688H17.3887L15.3203 55H14.2949L12.5371 48.7832L12.4023 48.1328L12.2676 48.7832L10.4453 55H9.41992L7.35742 46.4688H8.48242L9.83008 52.3105ZM22.1875 55C22.125 54.875 22.0742 54.6523 22.0352 54.332C21.5312 54.8555 20.9297 55.1172 20.2305 55.1172C19.6055 55.1172 19.0918 54.9414 18.6895 54.5898C18.291 54.2344 18.0918 53.7852 18.0918 53.2422C18.0918 52.582 18.3418 52.0703 18.8418 51.707C19.3457 51.3398 20.0527 51.1562 20.9629 51.1562H22.0176V50.6582C22.0176 50.2793 21.9043 49.9785 21.6777 49.7559C21.4512 49.5293 21.1172 49.416 20.6758 49.416C20.2891 49.416 19.9648 49.5137 19.7031 49.709C19.4414 49.9043 19.3105 50.1406 19.3105 50.418H18.2207C18.2207 50.1016 18.332 49.7969 18.5547 49.5039C18.7812 49.207 19.0859 48.9727 19.4688 48.8008C19.8555 48.6289 20.2793 48.543 20.7402 48.543C21.4707 48.543 22.043 48.7266 22.457 49.0938C22.8711 49.457 23.0859 49.959 23.1016 50.5996V53.5176C23.1016 54.0996 23.1758 54.5625 23.3242 54.9062V55H22.1875ZM20.3887 54.1738C20.7285 54.1738 21.0508 54.0859 21.3555 53.9102C21.6602 53.7344 21.8809 53.5059 22.0176 53.2246V51.9238H21.168C19.8398 51.9238 19.1758 52.3125 19.1758 53.0898C19.1758 53.4297 19.2891 53.6953 19.5156 53.8867C19.7422 54.0781 20.0332 54.1738 20.3887 54.1738ZM25.9785 55H24.8945V46H25.9785V55ZM28.8965 55H27.8125V46H28.8965V55ZM33.2676 55.1172C32.4082 55.1172 31.709 54.8359 31.1699 54.2734C30.6309 53.707 30.3613 52.9512 30.3613 52.0059V51.8066C30.3613 51.1777 30.4805 50.6172 30.7188 50.125C30.9609 49.6289 31.2969 49.2422 31.7266 48.9648C32.1602 48.6836 32.6289 48.543 33.1328 48.543C33.957 48.543 34.5977 48.8145 35.0547 49.3574C35.5117 49.9004 35.7402 50.6777 35.7402 51.6895V52.1406H31.4453C31.4609 52.7656 31.6426 53.2715 31.9902 53.6582C32.3418 54.041 32.7871 54.2324 33.3262 54.2324C33.709 54.2324 34.0332 54.1543 34.2988 53.998C34.5645 53.8418 34.7969 53.6348 34.9961 53.377L35.6582 53.8926C35.127 54.709 34.3301 55.1172 33.2676 55.1172ZM33.1328 49.4336C32.6953 49.4336 32.3281 49.5938 32.0312 49.9141C31.7344 50.2305 31.5508 50.6758 31.4805 51.25H34.6562V51.168C34.625 50.6172 34.4766 50.1914 34.2109 49.8906C33.9453 49.5859 33.5859 49.4336 33.1328 49.4336ZM38.4707 47.125V48.6602H39.6543V49.498H38.4707V53.4297C38.4707 53.6836 38.5234 53.875 38.6289 54.0039C38.7344 54.1289 38.9141 54.1914 39.168 54.1914C39.293 54.1914 39.4648 54.168 39.6836 54.1211V55C39.3984 55.0781 39.1211 55.1172 38.8516 55.1172C38.3672 55.1172 38.002 54.9707 37.7559 54.6777C37.5098 54.3848 37.3867 53.9688 37.3867 53.4297V49.498H36.2324V48.6602H37.3867V47.125H38.4707Z" fill="#040B1D"/>
  <path fill-rule="evenodd" clip-rule="evenodd" d="M77.8528 38.4358C77.8528 39.7062 79.0278 40.6585 80.2213 40.223C87.0868 37.7174 92 31.0137 92 23.1374C92 13.1204 84.0531 5 74.25 5C64.4469 5 56.5 13.1204 56.5 23.1374C56.5 31.2256 61.6811 38.0773 68.8371 40.416C70.0216 40.8032 71.1544 39.8547 71.1544 38.6085V36.7033C71.1544 35.8094 70.5541 35.0393 69.7265 34.7013C67.6285 33.8443 65.9006 32.4961 64.5428 30.6566C62.9 28.4152 62.0786 25.8181 62.0786 22.8652C62.0786 18.9637 63.5132 15.7677 66.3823 13.2773C68.7655 11.2138 71.4784 10.1821 74.521 10.1821C78.4429 10.1821 81.607 11.6348 84.0133 14.5403C85.9569 16.8883 86.9286 19.5981 86.9286 22.6696C86.9286 25.6817 86.0668 28.3796 84.343 30.7633C83.069 32.5371 81.3808 33.8503 79.2786 34.703C78.4514 35.0385 77.8528 35.8079 77.8528 36.7005V38.4358ZM77.6272 25.6693C77.6272 25.2013 77.2479 24.822 76.7799 24.822H72.2599C71.7836 24.822 71.3974 25.2081 71.3974 25.6845C71.3974 26.4187 70.5669 26.7727 70.1795 26.149C69.6032 25.2214 69.315 24.1386 69.315 22.9008C69.315 21.3947 69.8298 20.0903 70.8594 18.9874C71.8891 17.8845 73.1096 17.3331 74.521 17.3331C75.9208 17.3331 77.1356 17.8845 78.1652 18.9874C79.1948 20.0903 79.7097 21.3947 79.7097 22.9008C79.7097 24.1113 79.4199 25.1857 78.8405 26.1239C78.4574 26.7443 77.6272 26.3985 77.6272 25.6693Z" fill="#14A6F4"/>
  <path d="M7 17.4581C7 16.3535 7.89543 15.4581 9 15.4581H12.7301C13.8347 15.4581 14.7301 16.3535 14.7301 17.4581V26.6443C14.7301 27.1315 14.8362 27.5164 15.0484 27.7989C15.2605 28.0743 15.5206 28.212 15.8286 28.212C16.1434 28.212 16.4582 28.0637 16.773 27.7671C17.0947 27.4635 17.2555 27.0892 17.2555 26.6443V17.4581C17.2555 16.3535 18.151 15.4581 19.2555 15.4581H23.0781C24.1826 15.4581 25.0781 16.3535 25.0781 17.4581V26.9515C25.0781 28.724 24.6366 30.26 23.7538 31.5594C22.8778 32.8588 21.728 33.8404 20.3045 34.5043C18.8878 35.1681 17.3958 35.5 15.8286 35.5C14.713 35.5 13.6249 35.3199 12.5641 34.9598C11.5033 34.5925 10.552 34.0488 9.71017 33.3284C8.87522 32.6011 8.21478 31.7007 7.72887 30.6272C7.24296 29.5538 7 28.3286 7 26.9515V17.4581Z" fill="#262626"/>
  <path d="M28.8992 34.3783C27.7946 34.3783 26.8992 33.4829 26.8992 32.3783V22.0057C26.8992 20.445 27.3201 19.1103 28.1619 18.0016C29.0105 16.8858 30.1295 16.0454 31.5188 15.4804C32.9081 14.9155 34.3795 14.633 35.9331 14.633C37.5209 14.633 39.0299 14.9296 40.4603 15.5228C41.8975 16.109 43.0576 16.9882 43.9404 18.1605C44.8301 19.3328 45.275 20.7169 45.275 22.3129V32.3783C45.275 33.4829 44.3795 34.3783 43.275 34.3783H39.1547C38.0502 34.3783 37.1547 33.4829 37.1547 32.3783V22.832C37.1547 22.4083 37.0384 22.094 36.8057 21.8892C36.5798 21.6773 36.3198 21.5714 36.0255 21.5714C35.697 21.5714 35.3822 21.6985 35.081 21.9528C34.7799 22.1999 34.6293 22.493 34.6293 22.832V32.3783C34.6293 33.4829 33.7339 34.3783 32.6293 34.3783H28.8992Z" fill="#262626"/>
  <path d="M49.0858 34.3783C47.9813 34.3783 47.0858 33.4829 47.0858 32.3783V16.8555C47.0858 15.7509 47.9813 14.8555 49.0858 14.8555H53.124C54.2285 14.8555 55.124 15.7509 55.124 16.8555V32.3783C55.124 33.4829 54.2285 34.3783 53.124 34.3783H49.0858Z" fill="#262626"/>
  <path d="M93.5091 17.4581C93.5091 16.3535 94.4045 15.4581 95.5091 15.4581H99.2392C100.344 15.4581 101.239 16.3535 101.239 17.4581V26.6443C101.239 27.1315 101.345 27.5164 101.557 27.7989C101.77 28.0743 102.03 28.212 102.338 28.212C102.653 28.212 102.967 28.0637 103.282 27.7671C103.604 27.4635 103.765 27.0892 103.765 26.6443V17.4581C103.765 16.3535 104.66 15.4581 105.765 15.4581H109.587C110.692 15.4581 111.587 16.3535 111.587 17.4581V26.9515C111.587 28.724 111.146 30.26 110.263 31.5594C109.387 32.8588 108.237 33.8404 106.814 34.5043C105.397 35.1681 103.905 35.5 102.338 35.5C101.222 35.5 100.134 35.3199 99.0732 34.9598C98.0124 34.5925 97.0611 34.0488 96.2193 33.3284C95.3843 32.6011 94.7239 31.7007 94.238 30.6272C93.7521 29.5538 93.5091 28.3286 93.5091 26.9515V17.4581Z" fill="#262626"/>
  <path d="M132.3 20.4212C132.749 21.3067 132.359 22.3639 131.493 22.851L125.165 26.4149C124.202 26.9568 122.983 26.616 122.441 25.6537L122.393 25.5681C121.866 24.6325 122.201 23.4469 123.14 22.9262L123.797 22.562C124.58 22.1281 124.638 21.0686 123.743 21.0686C122.897 21.0686 122.05 21.4603 121.203 22.2136C121.028 22.3642 120.239 22.9669 120.006 23.5996C119.86 23.9612 119.889 24.2926 119.918 24.5035C119.947 24.7747 120.736 26.9743 121.407 27.7577C122.108 28.5712 122.897 28.963 123.831 28.963C124.9 28.963 126.041 28.4854 127.223 27.5303C128.114 26.8112 129.419 26.7456 130.233 27.5506L131.837 29.1383C132.514 29.8076 132.638 30.876 131.985 31.5686C131.5 32.0838 130.949 32.5611 130.343 33.0005C129.233 33.7839 128.065 34.3564 126.81 34.7783C125.554 35.17 124.298 35.3809 123.043 35.3809C121.787 35.3809 120.619 35.17 119.48 34.7783C118.341 34.3866 117.319 33.7839 116.385 32.9403C115.451 32.1267 114.721 31.0721 114.137 29.8066C113.582 28.5411 113.173 27.0948 113.085 25.4376C113.085 25.3472 113.085 25.3171 113.085 25.1664C113.085 25.0158 113.085 24.9254 113.085 24.9254C113.085 22.7258 113.582 20.8275 114.545 19.2607C115.509 17.6939 116.765 16.4887 118.254 15.7052C119.772 14.9218 121.291 14.5 122.838 14.5C127.144 14.5 130.298 16.4737 132.3 20.4212Z" fill="#262626"/>
</svg>
