<svg width="138" height="48" viewBox="0 0 138 48" fill="none" xmlns="http://www.w3.org/2000/svg">
<path fill-rule="evenodd" clip-rule="evenodd" d="M76.8038 40.9494C76.8038 41.4403 77.2495 41.8079 77.7176 41.6825C85.3351 39.6411 90.9545 32.5597 90.9545 24.1374C90.9545 14.1204 83.0056 6 73.2 6C63.3944 6 55.4455 14.1204 55.4455 24.1374C55.4455 32.7533 61.3262 39.966 69.2109 41.8153C69.6738 41.9238 70.1037 41.5582 70.1037 41.0765V36.7796C70.1037 36.4325 69.8749 36.1299 69.5493 36.0228C67.0522 35.2008 65.0326 33.7454 63.4903 31.6566C61.8471 29.4152 61.0255 26.8181 61.0255 23.8652C61.0255 19.9637 62.4604 16.7677 65.3303 14.2773C67.7141 12.2138 70.4277 11.1821 73.4711 11.1821C77.3939 11.1821 80.5588 12.6348 82.9658 15.5403C84.9099 17.8883 85.8819 20.5981 85.8819 23.6696C85.8819 26.6817 85.0198 29.3796 83.2956 31.7633C81.8495 33.7761 79.8699 35.1959 77.357 36.0226C77.0318 36.1296 76.8038 36.432 76.8038 36.7786V40.9494ZM76.5781 26.5962C76.5781 26.1686 76.2362 25.822 75.8145 25.822H71.1103C70.6886 25.822 70.3467 26.1686 70.3467 26.5962V26.8899C70.3467 27.5464 69.6125 27.8714 69.246 27.3301C68.5911 26.3632 68.2637 25.2201 68.2637 23.9008C68.2637 22.3947 68.7787 21.0903 69.8086 19.9874C70.8385 18.8845 72.0593 18.3331 73.4711 18.3331C74.8713 18.3331 76.0863 18.8845 77.1162 19.9874C78.1461 21.0903 78.661 22.3947 78.661 23.9008C78.661 25.18 78.3375 26.3071 77.6903 27.2823C77.3249 27.8329 76.5781 27.5105 76.5781 26.8469V26.5962Z" fill="#15ADFF"/>
<path d="M5.90406 17.2881C5.90406 16.8605 6.24595 16.5139 6.6677 16.5139H12.8656C13.2874 16.5139 13.6293 16.8605 13.6293 17.2881V27.7112C13.6293 28.199 13.7353 28.5843 13.9473 28.867C14.1593 29.1427 14.4192 29.2806 14.727 29.2806C15.0416 29.2806 15.3562 29.1321 15.6709 28.8352C15.9923 28.5313 16.153 28.1566 16.153 27.7112V17.2881C16.153 16.8605 16.4949 16.5139 16.9167 16.5139H23.207C23.6287 16.5139 23.9706 16.8605 23.9706 17.2881V28.0187C23.9706 29.7931 23.5294 31.3306 22.6472 32.6313C21.7717 33.932 20.6227 34.9146 19.2 35.5791C17.7843 36.2436 16.2933 36.5758 14.727 36.5758C13.6122 36.5758 12.5247 36.3956 11.4646 36.0351C10.4045 35.6675 9.45376 35.1231 8.6125 34.4021C7.77808 33.674 7.11807 32.7727 6.63247 31.6982C6.14686 30.6237 5.90406 29.3972 5.90406 28.0187V17.2881Z" fill="#040B1D"/>
<path d="M26.5542 35.453C26.1325 35.453 25.7906 35.1064 25.7906 34.6788V23.0681C25.7906 21.5058 26.2112 20.1697 27.0525 19.0599C27.9006 17.943 29.0188 17.1018 30.4072 16.5362C31.7957 15.9707 33.2662 15.688 34.8187 15.688C36.4055 15.688 37.9136 15.9849 39.3431 16.5787C40.7793 17.1654 41.9386 18.0455 42.8209 19.219C43.7101 20.3924 44.1546 21.7779 44.1546 23.3756V34.6788C44.1546 35.1064 43.8127 35.453 43.391 35.453H36.8032C36.3815 35.453 36.0396 35.1064 36.0396 34.6788V23.8951C36.0396 23.471 35.9233 23.1564 35.6908 22.9514C35.4651 22.7393 35.2052 22.6333 34.9111 22.6333C34.5828 22.6333 34.2681 22.7605 33.9672 23.015C33.6663 23.2625 33.5158 23.5558 33.5158 23.8951V34.6788C33.5158 35.1064 33.1739 35.453 32.7522 35.453H26.5542Z" fill="#040B1D"/>
<path d="M46.728 35.453C46.3063 35.453 45.9644 35.1064 45.9644 34.6788V16.6848C45.9644 16.2573 46.3063 15.9106 46.728 15.9106H53.2337C53.6555 15.9106 53.9974 16.2573 53.9974 16.6848V34.6788C53.9974 35.1064 53.6555 35.453 53.2337 35.453H46.728Z" fill="#040B1D"/>
<path d="M92.3581 17.2881C92.3581 16.8605 92.6999 16.5139 93.1217 16.5139H99.3196C99.7414 16.5139 100.083 16.8605 100.083 17.2881V27.7112C100.083 28.199 100.189 28.5843 100.401 28.867C100.613 29.1427 100.873 29.2806 101.181 29.2806C101.496 29.2806 101.81 29.1321 102.125 28.8352C102.446 28.5313 102.607 28.1566 102.607 27.7112V17.2881C102.607 16.8605 102.949 16.5139 103.371 16.5139H109.661C110.083 16.5139 110.425 16.8605 110.425 17.2881V28.0187C110.425 29.7931 109.983 31.3306 109.101 32.6313C108.226 33.932 107.077 34.9146 105.654 35.5791C104.238 36.2436 102.747 36.5758 101.181 36.5758C100.066 36.5758 98.9787 36.3956 97.9186 36.0351C96.8584 35.6675 95.9078 35.1231 95.0665 34.4021C94.2321 33.674 93.5721 32.7727 93.0865 31.6982C92.6009 30.6237 92.3581 29.3972 92.3581 28.0187V17.2881Z" fill="#040B1D"/>
<path d="M131.57 22.4392C131.722 22.7943 131.575 23.2053 131.241 23.3934L122.913 28.0914C122.547 28.2977 122.085 28.167 121.878 27.7983L120.652 25.6191C120.441 25.2432 120.575 24.7646 120.949 24.5567L123.294 23.2546C123.738 23.008 123.808 22.3913 123.324 22.2395C123.092 22.1665 122.84 22.13 122.573 22.13C121.727 22.13 120.881 22.5221 120.034 23.2761C119.859 23.4269 119.071 24.0301 118.838 24.6635C118.692 25.0255 118.721 25.3572 118.75 25.5684C118.78 25.8398 119.567 28.0416 120.239 28.8258C120.939 29.6402 121.727 30.0322 122.661 30.0322C124.017 30.0322 125.489 29.2616 127.016 27.7202C127.323 27.4101 127.821 27.3923 128.131 27.6994L131.372 30.9115C131.634 31.1713 131.68 31.5857 131.456 31.8798C130.835 32.6937 130.062 33.4251 129.168 34.0739C128.059 34.8581 126.892 35.4311 125.637 35.8534C124.382 36.2455 123.128 36.4566 121.873 36.4566C120.618 36.4566 119.451 36.2455 118.313 35.8534C117.174 35.4613 116.153 34.8581 115.219 34.0135C114.285 33.1992 113.556 32.1435 112.972 30.8768C112.418 29.61 112.009 28.1622 111.922 26.5034C111.922 26.4129 111.922 26.3827 111.922 26.2319C111.922 26.0811 111.922 25.9906 111.922 25.9906C111.922 23.7889 112.418 21.8887 113.381 20.3203C114.344 18.7519 115.599 17.5455 117.087 16.7613C118.604 15.9771 120.122 15.5548 121.669 15.5548C126.306 15.5548 129.607 17.8496 131.57 22.4392Z" fill="#040B1D"/>
</svg>
