<svg width="32" height="32" viewBox="0 0 32 32" fill="none" xmlns="http://www.w3.org/2000/svg">
  <path fill-rule="evenodd" clip-rule="evenodd" d="M10 4.99902C10 4.44674 10.4477 3.99902 11 3.99902H27C27.5523 3.99902 28 4.44674 28 4.99902V20.999C28 21.5513 27.5523 21.999 27 21.999H21C20.4477 21.999 20 21.5513 20 20.999C20 20.4467 20.4477 19.999 21 19.999H26V5.99902H12V10.999C12 11.5513 11.5523 11.999 11 11.999C10.4477 11.999 10 11.5513 10 10.999V4.99902Z" fill="#66C9FF"/>
  <path fill-rule="evenodd" clip-rule="evenodd" d="M3.99976 10.999C3.99976 10.4467 4.44747 9.99902 4.99976 9.99902H20.9998C21.552 9.99902 21.9998 10.4467 21.9998 10.999V26.999C21.9998 27.5513 21.552 27.999 20.9998 27.999H4.99976C4.44747 27.999 3.99976 27.5513 3.99976 26.999V10.999ZM5.99976 11.999V25.999H19.9998V11.999H5.99976Z" fill="#66C9FF"/>
</svg>
