<svg width="32" height="32" viewBox="0 0 32 32" fill="none" xmlns="http://www.w3.org/2000/svg">
  <path fill-rule="evenodd" clip-rule="evenodd" d="M16 5C9.92487 5 5 9.92487 5 16C5 21.738 9.3935 26.4499 15 26.9552V19H12C11.4477 19 11 18.5523 11 18C11 17.4477 11.4477 17 12 17H15V14C15 12.9391 15.4214 11.9217 16.1716 11.1716C16.9217 10.4214 17.9391 10 19 10H21C21.5523 10 22 10.4477 22 11C22 11.5523 21.5523 12 21 12H19C18.4696 12 17.9609 12.2107 17.5858 12.5858C17.2107 12.9609 17 13.4696 17 14V17H20C20.5523 17 21 17.4477 21 18C21 18.5523 20.5523 19 20 19H17V26.9552C22.6065 26.4499 27 21.738 27 16C27 9.92487 22.0751 5 16 5ZM29 16C29 23.1797 23.1797 29 16 29C8.8203 29 3 23.1797 3 16C3 8.8203 8.8203 3 16 3C23.1797 3 29 8.8203 29 16Z" fill="#66C9FF"/>
</svg>
