<svg width="32" height="32" viewBox="0 0 32 32" fill="none" xmlns="http://www.w3.org/2000/svg">
  <path fill-rule="evenodd" clip-rule="evenodd" d="M22.4903 5C22.4903 4.4 22.8907 4 23.4914 4C24.0921 4 24.4926 4.4 24.4926 5C24.4926 5.6 24.0921 6 23.4914 6C22.8907 6 22.4903 5.6 22.4903 5ZM23.4914 2C22.3087 2 21.3193 2.62782 20.8258 3.58142L17.0841 3.00005C16.5835 2.90005 16.083 3.30005 15.9829 3.80005L15.0971 9.02023C12.3943 9.14352 9.7396 9.82788 7.5732 11C7.37297 10.8 7.17275 10.6 6.8724 10.5C6.37183 10.2 5.77114 10 5.17046 10C4.56977 10 3.96908 10.1 3.46851 10.3C2.96794 10.5 2.46736 10.9 2.06691 11.3C1.66645 11.7 1.3661 12.2 1.16588 12.8C0.965646 13.4 0.965646 14 1.06576 14.6C1.06576 15.1 1.3661 15.7 1.66645 16.2C1.86668 16.5 2.06691 16.7 2.26713 16.9C2.06691 17.6 1.96679 18.3 1.96679 19C1.96679 24.5 8.27401 29 15.9828 29C23.6916 29 29.9989 24.5 30.099 19C30.099 18.3 29.9989 17.6 29.7986 16.9C29.9989 16.7 30.1991 16.5 30.3993 16.2C30.6997 15.8 30.8999 15.2 31 14.6C31 14 31 13.4 30.7998 12.8C30.5995 12.3 30.2992 11.7 29.8987 11.3C29.4983 10.9 28.9977 10.5 28.4971 10.3C27.9966 10.1 27.3959 10 26.7952 10C26.1945 10 25.5938 10.2 25.0932 10.5C24.893 10.6 24.5927 10.8 24.3924 11C22.3025 9.86925 19.7581 9.19243 17.1545 9.03537L17.7849 5.10005L20.5252 5.49107C20.7489 6.94408 21.9576 8 23.4914 8C25.1934 8 26.4949 6.7 26.4949 5C26.4949 3.3 25.1934 2 23.4914 2ZM20.5881 23.7999C21.0887 23.5999 21.2889 22.9999 20.9886 22.4999C20.7883 22.0999 20.1876 21.8999 19.6871 22.0999C18.4857 22.6999 17.2843 22.9999 15.9828 22.9999C14.6813 22.9999 13.3799 22.6999 12.2786 22.0999C11.8781 21.7999 11.2774 22.0999 10.9771 22.4999C10.6768 22.8999 10.877 23.4999 11.3776 23.7999C12.7792 24.4999 14.381 24.8999 15.9828 24.8999C17.5847 24.8999 19.1865 24.4999 20.5881 23.7999ZM4.56977 12.05C4.69491 12.025 4.82005 12 4.97023 12H5.07034C5.37068 12 5.67103 12.1 5.87126 12.2C6.1716 12.4 6.37182 12.6 6.57205 12.8L6.57206 12.8C6.8724 13.3 7.47309 13.4 7.87355 13.1C10.1762 11.7 12.9794 11 15.9828 11C18.9863 11 21.7895 11.7 24.0921 13.1C24.4926 13.3 25.0932 13.2 25.3936 12.8C25.5938 12.5 25.794 12.3 26.0944 12.2C26.2946 12.1 26.595 12 26.8953 12C27.1956 12 27.496 12 27.6962 12.2C27.9966 12.3 28.1968 12.5 28.397 12.7C28.5972 13 28.6974 13.2 28.7975 13.5C28.8976 13.8 28.8976 14.1 28.8976 14.4C28.8976 14.7 28.7975 15 28.5973 15.2C28.4971 15.4 28.2969 15.6 27.9966 15.8C27.5961 16 27.3959 16.5 27.5961 17C27.8965 17.6 27.9966 18.3 27.9966 19C27.9966 23.4 22.5904 27 15.9828 27C9.37527 27 3.96908 23.4 3.96908 19C3.96908 18.3 4.0692 17.6 4.36954 17C4.56977 16.5 4.36954 16 3.86897 15.7C3.73548 15.6333 3.602 15.4778 3.46851 15.3222L3.46851 15.3222C3.40177 15.2444 3.33502 15.1667 3.26828 15.1C3.24964 15.0628 3.22754 15.0221 3.2039 14.9786C3.10056 14.7883 2.96794 14.5442 2.96794 14.3C2.96794 14 2.96794 13.7 3.06805 13.4C3.16817 13.1 3.26828 12.8 3.46851 12.6C3.66874 12.4 3.86897 12.2 4.16931 12.1C4.31948 12.1 4.44463 12.075 4.56977 12.05ZM10.9771 19.5C12.0784 19.5 12.9794 18.6 12.9794 17.5C12.9794 16.4 12.0784 15.5 10.9771 15.5C9.87585 15.5 8.97482 16.4 8.97482 17.5C8.97482 18.6 9.87585 19.5 10.9771 19.5ZM22.9909 17.5C22.9909 18.6 22.0898 19.5 20.9886 19.5C19.8873 19.5 18.9863 18.6 18.9863 17.5C18.9863 16.4 19.8873 15.5 20.9886 15.5C22.0898 15.5 22.9909 16.4 22.9909 17.5Z" fill="#66C9FF"/>
</svg>
