<svg width="32" height="32" viewBox="0 0 32 32" fill="none" xmlns="http://www.w3.org/2000/svg">
  <path fill-rule="evenodd" clip-rule="evenodd" d="M26.8708 3.62092C27.2095 3.48783 27.5782 3.44971 27.937 3.51067C28.0921 3.53701 28.2427 3.58141 28.3861 3.64251C28.4141 3.65369 28.4416 3.66615 28.4686 3.67988C28.626 3.75554 28.7735 3.85183 28.9071 3.96683C29.1829 4.20432 29.3887 4.51257 29.5022 4.85837C29.6158 5.20416 29.6328 5.5744 29.5515 5.92917L28.612 5.71387L29.5515 5.92917L24.8498 26.4457C24.7724 26.7834 24.6086 27.0953 24.3745 27.3506C24.1404 27.606 23.8439 27.7961 23.5142 27.9025C23.1844 28.0088 22.8327 28.0276 22.4935 27.9572C22.1543 27.8867 21.8392 27.7293 21.5791 27.5004L16.6572 23.1691L13.4143 26.412C13.1346 26.6917 12.7782 26.8822 12.3903 26.9594C12.0023 27.0366 11.6002 26.997 11.2347 26.8456C10.8693 26.6942 10.5569 26.4379 10.3371 26.109C10.1174 25.7801 10.0001 25.3934 10.0001 24.9978V17.6786L4.14024 16.5066C3.7166 16.4219 3.33178 16.2023 3.04337 15.8806C2.75496 15.5589 2.57847 15.1525 2.54029 14.7222C2.50212 14.2918 2.60433 13.8607 2.83161 13.4933C3.0589 13.1259 3.39905 12.842 3.80117 12.684L4.16682 13.6147L3.80117 12.684L26.8708 3.62092ZM12.0001 19.0709V24.9978L15.1527 21.8452L12.0001 19.0709ZM4.53247 14.5455L21.9928 7.68608L10.7683 15.7926L4.53247 14.5455ZM22.9004 25.999L12.6013 16.9358L27.4319 6.22486L22.9004 25.999Z" fill="#66C9FF"/>
</svg>
