<svg width="32" height="32" viewBox="0 0 32 32" fill="none" xmlns="http://www.w3.org/2000/svg">
  <path d="M11.2404 28C6.89171 28 4.71738 25.8036 4.61855 25.7038C4.32205 25.4043 4.22321 25.1048 4.42088 24.7054C4.51971 24.3061 4.81621 24.1064 5.21154 24.0066C6.19988 23.8069 8.76953 23.0082 9.95553 21.4108C9.16487 20.9117 7.97887 20.113 6.79287 18.7153C5.11271 16.7186 3.23488 12.9248 4.32205 6.83481C4.42088 6.43547 4.71738 6.13596 5.11271 6.03613C5.50804 5.93629 5.90338 6.03613 6.10104 6.33563C6.10104 6.33563 9.36253 10.4289 14.2054 11.7268V11.0279C14.2054 9.63021 14.6995 8.33235 15.4902 7.23415C16.3797 6.13596 17.5657 5.43711 18.8505 5.1376C20.1353 4.8381 21.6178 5.03777 22.8038 5.63678C23.7922 6.13596 24.6817 6.93465 25.1758 7.93301H28.9315C29.3268 7.93301 29.7221 8.13268 29.821 8.53202C30.1175 9.0312 30.0186 9.43054 29.7221 9.73005L26.0653 13.424C25.8677 20.6122 20.7283 28 11.2404 28ZM7.68237 25.3044C8.57187 25.7038 9.75786 26.0033 11.2404 26.0033C19.6412 26.0033 24.0887 19.514 24.0887 13.0246C24.0887 12.7251 24.1875 12.5255 24.3852 12.3258L26.6583 10.0296H24.6817C24.2863 10.0296 23.891 9.82989 23.7922 9.43054C23.3968 8.63186 22.8038 7.93301 22.0132 7.43383C21.2225 7.03448 20.2342 6.93465 19.3447 7.03448C18.4552 7.23415 17.6645 7.73333 17.0715 8.43218C16.4785 9.13104 16.182 10.0296 16.182 10.9281V12.9248C16.182 13.2243 16.0832 13.5238 15.7867 13.7235C15.589 14.023 15.2925 14.023 15.0948 14.023C10.9439 13.3241 7.7812 10.9281 6.00221 9.23087C5.40921 17.6171 11.5369 20.0131 11.6357 20.113C12.1299 20.3126 12.4264 20.8118 12.2287 21.4108C11.5369 23.4076 9.36253 24.6056 7.68237 25.3044Z" fill="#66C9FF"/>
</svg>
