<svg width="24" height="24" viewBox="0 0 24 24" fill="none" xmlns="http://www.w3.org/2000/svg">
<circle cx="12" cy="12" r="12" fill="#ECECEC"/>
<path fill-rule="evenodd" clip-rule="evenodd" d="M5.5 7.66675C5.5 7.11446 5.94772 6.66675 6.5 6.66675H17.5C18.0523 6.66675 18.5 7.11446 18.5 7.66675V16.6667C18.5 17.219 18.0523 17.6667 17.5 17.6667H6.5C5.94772 17.6667 5.5 17.219 5.5 16.6667V7.66675ZM17.5 7.66675H6.5V16.6667H17.5V7.66675Z" fill="#A9AFBD"/>
<path fill-rule="evenodd" clip-rule="evenodd" d="M9.11731 10.4096C9.23863 10.3594 9.36867 10.3335 9.49999 10.3335C9.63131 10.3335 9.76135 10.3594 9.88267 10.4096C10.004 10.4599 10.1142 10.5335 10.2071 10.6264L13 13.4193L14.2929 12.1264C14.3857 12.0335 14.496 11.9599 14.6173 11.9096C14.7386 11.8594 14.8687 11.8335 15 11.8335C15.1313 11.8335 15.2613 11.8594 15.3827 11.9096C15.504 11.9599 15.6142 12.0335 15.7071 12.1264L18.3535 14.7728C18.4473 14.8666 18.5 14.9938 18.5 15.1264V16.6264C18.5 16.9025 18.2761 17.1264 18 17.1264H6C5.72386 17.1264 5.5 16.9025 5.5 16.6264V14.1264C5.5 13.9938 5.55268 13.8666 5.64645 13.7728L8.79288 10.6264C8.88574 10.5335 8.99598 10.4599 9.11731 10.4096ZM6.5 14.3335V16.8543H17.5V15.3335L15 12.8335L13.7071 14.1264C13.6142 14.2192 13.504 14.2929 13.3827 14.3432C13.2613 14.3934 13.1313 14.4193 13 14.4193C12.8687 14.4193 12.7386 14.3934 12.6173 14.3432C12.496 14.2929 12.3857 14.2192 12.2929 14.1264L9.49999 11.3335L6.5 14.3335Z" fill="#A9AFBD"/>
<path d="M13.75 11C14.1642 11 14.5 10.6642 14.5 10.25C14.5 9.83579 14.1642 9.5 13.75 9.5C13.3358 9.5 13 9.83579 13 10.25C13 10.6642 13.3358 11 13.75 11Z" fill="#A9AFBD"/>
</svg>
