<svg width="22" height="10" viewBox="0 0 22 10" fill="none" xmlns="http://www.w3.org/2000/svg">
  <path fill-rule="evenodd" clip-rule="evenodd" d="M16.4836 2.28531C16.8423 2.0782 17.301 2.20111 17.5081 2.55983L19.6465 6.26369C19.8536 6.62241 19.7307 7.08111 19.372 7.28821C19.0133 7.49532 18.5546 7.37241 18.3475 7.01369L16.209 3.30983C16.0019 2.95111 16.1248 2.49242 16.4836 2.28531Z" fill="#81858E"/>
  <path fill-rule="evenodd" clip-rule="evenodd" d="M12.3251 4.25481C12.733 4.18289 13.122 4.45526 13.194 4.86318L13.8609 8.64542C13.9328 9.05335 13.6604 9.44234 13.2525 9.51427C12.8446 9.58619 12.4556 9.31382 12.3837 8.9059L11.7167 5.12366C11.6448 4.71574 11.9172 4.32674 12.3251 4.25481Z" fill="#81858E"/>
  <path fill-rule="evenodd" clip-rule="evenodd" d="M7.66818 4.253C8.0761 4.32493 8.34848 4.71392 8.27655 5.12185L7.60953 8.90471C7.5376 9.31263 7.14861 9.58501 6.74069 9.51308C6.33277 9.44115 6.06039 9.05216 6.13232 8.64424L6.79934 4.86137C6.87127 4.45345 7.26026 4.18108 7.66818 4.253Z" fill="#81858E"/>
  <path fill-rule="evenodd" clip-rule="evenodd" d="M3.51409 2.28229C3.87281 2.48939 3.99571 2.94808 3.78861 3.3068L1.63988 7.02851C1.43277 7.38723 0.974079 7.51014 0.61536 7.30303C0.25664 7.09592 0.133734 6.63723 0.34084 6.27851L2.48957 2.5568C2.69668 2.19809 3.15537 2.07518 3.51409 2.28229Z" fill="#81858E"/>
  <path fill-rule="evenodd" clip-rule="evenodd" d="M0.529408 0.248656C0.851611 -0.0116475 1.32383 0.038532 1.58413 0.360735C3.07763 2.20939 5.77347 4.50002 10.0008 4.50002C14.2281 4.50002 16.9239 2.2094 18.4174 0.360755C18.6777 0.0385528 19.1499 -0.0116257 19.4721 0.248679C19.7943 0.508983 19.8445 0.981198 19.5842 1.3034C17.9254 3.35671 14.8422 6.00002 10.0008 6.00002C5.15939 6.00002 2.07617 3.35669 0.417329 1.30338C0.157025 0.981175 0.207205 0.50896 0.529408 0.248656Z" fill="#81858E"/>
</svg>
