<svg width="24" height="16" viewBox="0 0 24 16" fill="none" xmlns="http://www.w3.org/2000/svg">
  <path fill-rule="evenodd" clip-rule="evenodd" d="M3.40714 4.09433C5.195 2.30628 8.00054 0.499268 12 0.499268C15.9995 0.499268 18.805 2.30628 20.5929 4.09433C21.4846 4.9862 22.1277 5.87676 22.5488 6.54562C22.7597 6.88063 22.916 7.16174 23.0208 7.36195C23.0733 7.46212 23.113 7.5422 23.1402 7.59885C23.1539 7.62718 23.1644 7.64967 23.1719 7.6659L23.1809 7.68551L23.1837 7.6917L23.1851 7.69472C23.1851 7.69472 23.1854 7.69542 22.5 8C23.1853 8.30463 23.185 8.30533 23.185 8.30533L23.1847 8.30619L23.1837 8.30836L23.1809 8.31455L23.1719 8.33415C23.1644 8.35037 23.1539 8.37286 23.1402 8.40119C23.1129 8.45783 23.0733 8.5379 23.0208 8.63804C22.9159 8.83822 22.7596 9.11927 22.5487 9.45421C22.1276 10.1229 21.4846 11.0133 20.5928 11.905C18.8049 13.6927 15.9994 15.4993 12 15.4993C8.00059 15.4993 5.19508 13.6927 3.4072 11.905C2.51543 11.0133 1.87238 10.1229 1.45128 9.45421C1.24037 9.11927 1.08406 8.83822 0.979197 8.63804C0.926735 8.5379 0.887061 8.45783 0.859785 8.40119C0.846145 8.37286 0.835596 8.35037 0.828093 8.33415L0.819111 8.31455L0.816319 8.30836L0.815346 8.30619L0.814965 8.30533C0.814965 8.30533 0.814654 8.30463 1.5 8C0.814629 7.69542 0.81494 7.69472 0.81494 7.69472L0.815321 7.69387L0.816294 7.6917L0.819086 7.68551L0.828067 7.6659C0.83557 7.64967 0.846117 7.62718 0.859757 7.59885C0.887032 7.5422 0.926705 7.46212 0.979166 7.36195C1.08403 7.16174 1.24033 6.88063 1.45124 6.54562C1.87233 5.87676 2.51538 4.9862 3.40714 4.09433ZM1.5 8L0.814629 7.69542C0.728448 7.88935 0.728457 8.11071 0.814654 8.30463L1.5 8ZM2.33859 7.99996C2.42682 7.83466 2.55354 7.61019 2.72063 7.34478C3.09642 6.74788 3.67212 5.95076 4.46786 5.15493C6.055 3.56762 8.49946 1.99927 12 1.99927C15.5005 1.99927 17.945 3.56762 19.5321 5.15493C20.3279 5.95076 20.9036 6.74788 21.2794 7.34478C21.4465 7.61019 21.5732 7.83467 21.6614 7.99996C21.5732 8.16521 21.4465 8.38961 21.2794 8.65493C20.9036 9.25169 20.3279 10.0486 19.5322 10.8443C17.9451 12.4312 15.5006 13.9993 12 13.9993C8.49941 13.9993 6.05492 12.4312 4.4678 10.8443C3.67207 10.0486 3.09637 9.25169 2.72059 8.65493C2.55352 8.38961 2.42682 8.16521 2.33859 7.99996ZM22.5 8L23.1853 8.30463C23.2715 8.11071 23.2716 7.88935 23.1854 7.69542L22.5 8Z" fill="#81858E"/>
  <path fill-rule="evenodd" clip-rule="evenodd" d="M12 5.00006C10.3431 5.00006 9 6.3432 9 8.00006C9 9.65691 10.3431 11.0001 12 11.0001C13.6569 11.0001 15 9.65691 15 8.00006C15 6.3432 13.6569 5.00006 12 5.00006ZM7.5 8.00006C7.5 5.51478 9.51472 3.50006 12 3.50006C14.4853 3.50006 16.5 5.51478 16.5 8.00006C16.5 10.4853 14.4853 12.5001 12 12.5001C9.51472 12.5001 7.5 10.4853 7.5 8.00006Z" fill="#81858E"/>
</svg>
