<svg width="18" height="20" viewBox="0 0 18 20" fill="none" xmlns="http://www.w3.org/2000/svg">
  <path fill-rule="evenodd" clip-rule="evenodd" d="M2.24994 0.25C1.85213 0.25001 1.4706 0.408052 1.18931 0.68936C0.908019 0.970664 0.749995 1.3522 0.75 1.75002V18.25C0.749991 18.6478 0.908015 19.0293 1.18931 19.3106C1.4706 19.5919 1.85212 19.75 2.24994 19.75H15.75C16.1479 19.75 16.5294 19.5919 16.8107 19.3106C17.092 19.0293 17.25 18.6478 17.25 18.25V6.25C17.25 6.05109 17.171 5.86033 17.0303 5.71968L11.7806 0.469683C11.6399 0.329023 11.4492 0.25 11.2503 0.25H2.24994ZM2.25 1.75V18.25H15.75V7L10.5 1.75H2.25Z" fill="#81858E"/>
  <path fill-rule="evenodd" clip-rule="evenodd" d="M11.2503 0.25C11.6645 0.25 12 0.585786 12 1V5.5H16.5007C16.915 5.5 17.25 5.83579 17.25 6.25C17.25 6.66421 16.915 7 16.5007 7H11.25C10.8358 7 10.5 6.66421 10.5 6.25V1C10.5 0.585786 10.836 0.25 11.2503 0.25Z" fill="#81858E"/>
</svg>
