<svg width="24" height="24" viewBox="0 0 24 24" fill="none" xmlns="http://www.w3.org/2000/svg">
  <path fill-rule="evenodd" clip-rule="evenodd" d="M7.5 3.74939C7.5 3.33518 7.83579 2.99939 8.25 2.99939H20.25C20.6642 2.99939 21 3.33518 21 3.74939V15.7494C21 16.1636 20.6642 16.4994 20.25 16.4994H15.75C15.3358 16.4994 15 16.1636 15 15.7494C15 15.3352 15.3358 14.9994 15.75 14.9994H19.5V4.49939H9V8.24939C9 8.6636 8.66421 8.99939 8.25 8.99939C7.83579 8.99939 7.5 8.6636 7.5 8.24939V3.74939Z" fill="#A9AFBD"/>
  <path fill-rule="evenodd" clip-rule="evenodd" d="M3 8.24951C3 7.8353 3.33579 7.49951 3.75 7.49951H15.75C16.1642 7.49951 16.5 7.8353 16.5 8.24951V20.2495C16.5 20.6637 16.1642 20.9995 15.75 20.9995H3.75C3.33579 20.9995 3 20.6637 3 20.2495V8.24951ZM4.5 8.99951V19.4995H15V8.99951H4.5Z" fill="#A9AFBD"/>
</svg>
